<svg version="1.1" id="Layer_1" xmlns="http://www.w3.org/2000/svg" xmlns:xlink="http://www.w3.org/1999/xlink" x="0px" y="0px"
	 width="100%" viewBox="0 0 300 300" enable-background="new 0 0 300 300" xml:space="preserve">
<path fill="#000000" opacity="1.000000" stroke="none" 
	d="
M196.000000,301.000000 
	C130.666672,301.000000 65.833359,301.000000 1.000026,301.000000 
	C1.000017,201.000031 1.000017,101.000061 1.000009,1.000066 
	C100.999947,1.000044 200.999893,1.000044 300.999878,1.000022 
	C300.999939,100.999939 300.999939,200.999878 300.999969,300.999908 
	C266.166656,301.000000 231.333328,301.000000 196.000000,301.000000 
M145.981598,251.051498 
	C145.934143,223.378113 145.886673,195.704712 145.956833,167.273895 
	C143.209671,157.631454 137.043365,151.228180 128.035263,146.848618 
	C119.190361,142.548416 110.811386,137.298676 102.154396,132.601166 
	C88.534798,125.210808 74.912865,117.819962 61.165588,110.672310 
	C56.483696,108.238045 51.885254,110.844292 50.210094,116.289459 
	C50.141754,143.337814 50.068707,170.386185 50.040066,197.434570 
	C50.039513,197.956039 50.562218,198.478058 50.961830,199.843597 
	C50.759460,209.522614 56.389935,215.987610 63.920414,220.311844 
	C86.294533,233.159775 109.017761,245.398987 131.574982,257.929352 
	C138.295166,261.662354 145.252060,258.826813 145.981598,251.051498 
M251.727585,114.140648 
	C247.483765,109.035553 244.357513,108.522957 237.975616,111.989960 
	C215.167389,124.380684 192.306610,136.675430 169.553146,149.165787 
	C162.232101,153.184631 158.320648,159.754303 157.011490,168.916840 
	C157.061493,196.945206 157.111496,224.973572 157.037384,253.734222 
	C160.048737,260.377472 162.946762,261.673248 169.228195,258.303741 
	C191.772934,246.210175 214.246735,233.983292 236.685303,221.693512 
	C244.562851,217.378906 250.397827,211.277817 252.872391,201.601669 
	C252.914825,173.664352 252.968109,145.727036 252.955765,117.789734 
	C252.955322,116.784874 252.307907,115.780296 251.727585,114.140648 
M82.352364,78.915237 
	C78.038017,81.233109 73.724556,83.552635 69.409035,85.868317 
	C66.240791,87.568367 62.362064,89.577888 63.278309,93.480835 
	C63.949600,96.340347 66.734390,99.414604 69.405876,100.967758 
	C79.701859,106.953606 90.360710,112.311806 100.827179,118.008911 
	C110.398148,123.218590 119.862686,128.623810 129.433319,133.834106 
	C141.422867,140.361267 153.102173,144.259201 166.669418,136.350250 
	C189.067017,123.293709 212.182571,111.472305 234.923935,98.999779 
	C241.809937,95.223145 241.264465,89.263496 233.721558,84.974213 
	C226.096649,80.638290 218.372055,76.476738 210.668839,72.279694 
	C199.438202,66.160767 188.245941,59.967262 176.921585,54.026199 
	C171.040787,50.940971 165.159653,47.360180 158.833847,45.740406 
	C150.212906,43.532940 141.997498,45.506237 133.946899,50.293648 
	C117.265259,60.213654 100.006355,69.162910 82.352364,78.915237 
z"/>
<path fill="#F2663C" opacity="1.000000" stroke="none" 
	d="
M252.118088,202.038940 
	C250.397827,211.277817 244.562851,217.378906 236.685303,221.693512 
	C214.246735,233.983292 191.772934,246.210175 169.228195,258.303741 
	C162.946762,261.673248 160.048737,260.377472 157.324966,253.019775 
	C157.735413,251.490311 157.964951,250.675385 157.965622,249.860275 
	C157.987457,223.835617 157.998795,197.810944 157.955002,171.786346 
	C157.952866,170.518768 157.437912,169.252045 157.161743,167.984924 
	C158.320648,159.754303 162.232101,153.184631 169.553146,149.165787 
	C192.306610,136.675430 215.167389,124.380684 237.975616,111.989960 
	C244.357513,108.522957 247.483765,109.035553 251.780304,114.938522 
	C251.889343,118.063026 251.990723,120.389580 251.995087,122.716316 
	C252.044632,149.157181 252.079376,175.598068 252.118088,202.038940 
z"/>
<path fill="#9CCB3C" opacity="1.000000" stroke="none" 
	d="
M50.987106,115.851379 
	C51.885254,110.844292 56.483696,108.238045 61.165588,110.672310 
	C74.912865,117.819962 88.534798,125.210808 102.154396,132.601166 
	C110.811386,137.298676 119.190361,142.548416 128.035263,146.848618 
	C137.043365,151.228180 143.209671,157.631454 145.683899,168.003784 
	C145.279755,169.551514 145.034637,170.369263 145.033905,171.187225 
	C145.011093,196.839279 145.000153,222.491379 145.044632,248.143372 
	C145.046860,249.421997 145.561859,250.699753 145.838089,251.977905 
	C145.252060,258.826813 138.295166,261.662354 131.574982,257.929352 
	C109.017761,245.398987 86.294533,233.159775 63.920414,220.311844 
	C56.389935,215.987610 50.759460,209.522614 50.964653,198.956711 
	C50.974018,170.663681 50.980564,143.257523 50.987106,115.851379 
z"/>
<path fill="#3FC1C4" opacity="1.000000" stroke="none" 
	d="
M82.668587,78.713280 
	C100.006355,69.162910 117.265259,60.213654 133.946899,50.293648 
	C141.997498,45.506237 150.212906,43.532940 158.833847,45.740406 
	C165.159653,47.360180 171.040787,50.940971 176.921585,54.026199 
	C188.245941,59.967262 199.438202,66.160767 210.668839,72.279694 
	C218.372055,76.476738 226.096649,80.638290 233.721558,84.974213 
	C241.264465,89.263496 241.809937,95.223145 234.923935,98.999779 
	C212.182571,111.472305 189.067017,123.293709 166.669418,136.350250 
	C153.102173,144.259201 141.422867,140.361267 129.433319,133.834106 
	C119.862686,128.623810 110.398148,123.218590 100.827179,118.008911 
	C90.360710,112.311806 79.701859,106.953606 69.405876,100.967758 
	C66.734390,99.414604 63.949600,96.340347 63.278309,93.480835 
	C62.362064,89.577888 66.240791,87.568367 69.409035,85.868317 
	C73.724556,83.552635 78.038017,81.233109 82.668587,78.713280 
z"/>
<path fill="#FFFFFF" opacity="1.000000" stroke="none" 
	d="
M252.495239,201.820312 
	C252.079376,175.598068 252.044632,149.157181 251.995087,122.716316 
	C251.990723,120.389580 251.889343,118.063026 251.897507,115.255981 
	C252.307907,115.780296 252.955322,116.784874 252.955765,117.789734 
	C252.968109,145.727036 252.914825,173.664352 252.495239,201.820312 
z"/>
<path fill="#F69578" opacity="1.000000" stroke="none" 
	d="
M157.086624,168.450882 
	C157.437912,169.252045 157.952866,170.518768 157.955002,171.786346 
	C157.998795,197.810944 157.987457,223.835617 157.965622,249.860275 
	C157.964951,250.675385 157.735413,251.490311 157.387024,252.653625 
	C157.111496,224.973572 157.061493,196.945206 157.086624,168.450882 
z"/>
<path fill="#BBDB78" opacity="1.000000" stroke="none" 
	d="
M145.909851,251.514709 
	C145.561859,250.699753 145.046860,249.421997 145.044632,248.143372 
	C145.000153,222.491379 145.011093,196.839279 145.033905,171.187225 
	C145.034637,170.369263 145.279755,169.551514 145.625092,168.382507 
	C145.886673,195.704712 145.934143,223.378113 145.909851,251.514709 
z"/>
<path fill="#FFFFFF" opacity="1.000000" stroke="none" 
	d="
M50.598602,116.070419 
	C50.980564,143.257523 50.974018,170.663681 50.904133,198.534821 
	C50.562218,198.478058 50.039513,197.956039 50.040066,197.434570 
	C50.068707,170.386185 50.141754,143.337814 50.598602,116.070419 
z"/>
</svg>